<?xml version="1.0" encoding="iso-8859-1"?>
<!-- Generator: Adobe Illustrator 19.0.0, SVG Export Plug-In . SVG Version: 6.00 Build 0)  -->
<svg version="1.1" id="Capa_1" xmlns="http://www.w3.org/2000/svg" xmlns:xlink="http://www.w3.org/1999/xlink" x="0px" y="0px"
	 viewBox="0 0 512 512" style="enable-background:new 0 0 512 512;" xml:space="preserve">
<g>
	<polygon style="fill:#DD1A72;" points="0,182.08 255.92,333.36 0,484.56 	"/>
	<polygon style="fill:#DD1A72;" points="511.84,484.56 255.92,333.36 511.84,182.08 	"/>
</g>
<polygon style="fill:#E1549B;" points="0,484.56 511.84,484.56 255.92,333.36 "/>
<polygon style="fill:#F3BFC4;" points="46.32,27.52 46.32,209.04 256.16,333.6 465.68,209.6 465.68,27.44 "/>
<g>
	<polygon style="fill:#E1549B;" points="0,182.08 46.16,147.2 46.16,209.36 	"/>
	<polygon style="fill:#E1549B;" points="512,182.08 465.84,147.2 465.84,209.36 	"/>
</g>
<path style="fill:#FFFFFF;" d="M340.504,90.712c-28.336-28-67.824-15.2-84.504,2.592c-16.68-17.792-56.168-30.592-84.504-2.592
	c-31.136,30.76,0.744,71.536,0.744,71.536L256,257.504l83.768-95.256C339.768,162.248,371.64,121.48,340.504,90.712z"/>
<g>
</g>
<g>
</g>
<g>
</g>
<g>
</g>
<g>
</g>
<g>
</g>
<g>
</g>
<g>
</g>
<g>
</g>
<g>
</g>
<g>
</g>
<g>
</g>
<g>
</g>
<g>
</g>
<g>
</g>
</svg>
